# xmcd
#
# Track frame offsets:
#       182
#       15302
#       29612
#       43672
#       59110
#       70735
#       83910
#       95062
#       107235
#       120265
#       134220
#       147100
#       161337
#       176992
#       191435
#       207447
#       220122
#       239245
#       253802
#       268032
#
# Disc length: 3744 seconds
#
# Revision: 0
# Processed by: cddbd v1.4PL0 Copyright (c) Steve Scherf et al.
# Submitted via: CD-DA_X-Tractor v0.21
#
DISCID=370e9e14
DTITLE=Don Williams - Reminiscing With Don
DYEAR=1900
DGENRE=
TTITLE0=I Recall A Gypsy Woman
TTITLE1=Down The Road I Go
TTITLE2=Amanda
TTITLE3=Tempted
TTITLE4=Time On My Hands
TTITLE5=Mistakes
TTITLE6=I Wish I Was In Nashville
TTITLE7=Ghost Story
TTITLE8=She Never Knew Me
TTITLE9=I´m Just A Coutry Boy
TTITLE10=Rake And Ramblin´ Man
TTITLE11=Come Early Morning
TTITLE12=All I´m Missing You
TTITLE13=Tulsa Time
TTITLE14=Rainy Nights And Memories
TTITLE15=Simple Song
TTITLE16=Fairweather Friends
TTITLE17=If Hollywood Don´t Need You
TTITLE18=I´m Still Looking For You
TTITLE19=The Story Of My Life
EXTD=
EXTT0=
EXTT1=
EXTT2=
EXTT3=
EXTT4=
EXTT5=
EXTT6=
EXTT7=
EXTT8=
EXTT9=
EXTT10=
EXTT11=
EXTT12=
EXTT13=
EXTT14=
EXTT15=
EXTT16=
EXTT17=
EXTT18=
EXTT19=
PLAYORDER=
